<svg width="40" height="40" viewBox="0 0 40 40" fill="none" xmlns="http://www.w3.org/2000/svg">
<circle opacity="0.5" cx="20" cy="20" r="19.25" stroke="#FF546D" stroke-width="1.5"/>
<path d="M18.5089 20.5163C16.8952 19.1852 15.0875 18.1086 13.1485 17.3237C12.4091 16.9938 11.5099 17.0747 11.1107 18.056C11.0334 18.2487 10.9959 18.4551 11.0004 18.6627C11.0048 18.8703 11.0512 19.0748 11.1367 19.264C11.2222 19.4532 11.345 19.6232 11.4979 19.7637C11.6507 19.9043 11.8304 20.0125 12.0261 20.0818C13.9312 20.8452 15.6933 21.9255 17.2379 23.2769C20.1193 25.8664 22.2228 29.207 23.3127 32.9245C24.2056 32.4626 25.023 31.8675 25.7368 31.1597C24.3797 27.0011 21.8739 23.3112 18.5089 20.5163ZM16.9553 25.1517C15.832 24.4301 14.5506 23.9916 13.2207 23.8736C12.8654 23.8572 12.516 23.9695 12.2366 24.1898C11.9573 24.4101 11.7668 24.7238 11.7 25.0732C11.4925 25.8525 12.1722 26.8496 12.8809 26.865C13.8294 26.9319 14.7443 27.2434 15.5366 27.7692C16.2889 28.2553 16.9205 28.9064 17.3837 29.673C17.8468 30.4396 18.1293 31.3017 18.2097 32.1937C18.2512 32.5309 18.3997 32.8459 18.6335 33.0924C18.8673 33.3388 19.174 33.5038 19.5085 33.5631C19.7296 33.5778 19.9512 33.5427 20.1569 33.4606C20.3627 33.3784 20.5475 33.2512 20.6977 33.0882C20.8478 32.9253 20.9596 32.7308 21.0247 32.519C21.0899 32.3072 21.1067 32.0834 21.0741 31.8643C20.9104 30.5151 20.4577 29.2171 19.7469 28.0587C19.0361 26.9003 18.084 25.9087 16.9553 25.1517ZM29.5594 18.9274C27.8289 16.401 25.808 14.0864 23.538 12.031C22.0002 10.6377 20.3513 9.37216 18.6076 8.24707C18.3626 8.07144 18.0649 7.985 17.764 8.00213C17.4631 8.01927 17.1771 8.13895 16.9536 8.34126C16.2636 8.94252 16.3727 10.2085 17.0416 10.5973L17.1283 10.6492C18.9438 11.8342 20.654 13.173 22.2401 14.651C25.0088 17.3439 27.3961 20.4029 29.3357 23.7429C29.5215 22.7314 29.6127 21.7048 29.6083 20.6764C29.6104 20.1802 29.5963 19.4055 29.5594 18.9254V18.9274ZM23.6521 10.6114L23.6588 10.6143C25.3466 11.4483 26.7319 12.7886 27.6211 14.4481C27.7472 14.6509 27.9179 14.8223 28.1203 14.949C28.3226 15.0758 28.5513 15.1547 28.7888 15.1796C27.756 11.9094 25.7012 9.26493 23.2135 8.14415C23.0823 8.27341 22.9776 8.42705 22.9052 8.59645C22.746 8.96352 22.7348 9.37794 22.874 9.75308C23.0132 10.1282 23.292 10.435 23.6521 10.6094V10.6114ZM20.9965 15.6419C19.2185 13.9552 17.2719 12.4559 15.1872 11.1675C14.9561 11.0566 14.7001 11.0079 14.4445 11.0263C14.1888 11.0447 13.9424 11.1295 13.7296 11.2724C13.5168 11.4152 13.345 11.6112 13.2312 11.8408C13.1173 12.0704 13.0654 12.3258 13.0805 12.5816C13.0791 12.8893 13.166 13.1909 13.3307 13.4508C13.4954 13.7107 13.7311 13.9179 14.01 14.048C16.0434 15.3279 17.9261 16.8327 19.6226 18.5341C22.7729 21.7736 25.2412 25.6125 26.8813 29.8232C27.6222 28.7609 28.2096 27.5995 28.6261 26.3733C26.7572 22.3606 24.171 18.7231 20.9948 15.6398L20.9965 15.6419Z" fill="#FB203F"/>
<path d="M28.1531 33.6253C28.1533 33.8846 28.0635 34.1358 27.8991 34.3363C27.7347 34.5368 27.5059 34.674 27.2517 34.7247C26.9974 34.7753 26.7335 34.7362 26.5048 34.614C26.2761 34.4919 26.0969 34.2942 25.9977 34.0547C25.8985 33.8152 25.8854 33.5487 25.9607 33.3006C26.036 33.0525 26.1949 32.8382 26.4105 32.6942C26.6261 32.5502 26.8849 32.4855 27.1429 32.511C27.4009 32.5364 27.6421 32.6506 27.8253 32.834C27.9312 32.9364 28.015 33.0595 28.0714 33.1956C28.1278 33.3318 28.1556 33.478 28.1531 33.6253ZM27.9042 33.6253C27.9057 33.51 27.8839 33.3956 27.8399 33.2889C27.796 33.1823 27.7309 33.0857 27.6486 33.005C27.5681 32.9231 27.4722 32.8581 27.3664 32.8138C27.2605 32.7694 27.1469 32.7465 27.0322 32.7465C26.9174 32.7465 26.8038 32.7694 26.698 32.8138C26.5921 32.8581 26.4962 32.9231 26.4157 33.005C26.2518 33.1696 26.1597 33.3925 26.1597 33.6249C26.1597 33.8573 26.2518 34.0802 26.4157 34.2448C26.4961 34.3268 26.592 34.392 26.6979 34.4364C26.8037 34.4809 26.9174 34.5038 27.0322 34.5038C27.147 34.5038 27.2606 34.4809 27.3665 34.4364C27.4723 34.392 27.5682 34.3268 27.6486 34.2448C27.7314 34.1645 27.797 34.0681 27.8413 33.9616C27.8857 33.8551 27.9079 33.7407 27.9067 33.6253H27.9042ZM27.6378 34.1556H27.3L26.9755 33.7465H26.8689V34.1556H26.6054V33.0415H27.0108C27.0715 33.0409 27.1322 33.0441 27.1925 33.051C27.2405 33.0571 27.2867 33.0731 27.3282 33.0979C27.3734 33.1214 27.411 33.157 27.4369 33.2008C27.4607 33.2475 27.4721 33.2995 27.4701 33.3519C27.4735 33.4252 27.4499 33.4972 27.4037 33.5544C27.357 33.6077 27.2983 33.6493 27.2324 33.6755L27.6378 34.1556ZM27.1768 33.373C27.1774 33.3508 27.1725 33.3287 27.1627 33.3087C27.1519 33.2883 27.1351 33.2718 27.1145 33.2614C27.0938 33.25 27.0711 33.2427 27.0477 33.2398C27.0159 33.2356 26.9839 33.2338 26.9519 33.2344H26.8689V33.5486H26.9328C26.9695 33.549 27.0062 33.5457 27.0423 33.5386C27.0709 33.5345 27.098 33.5234 27.1212 33.5062C27.1399 33.4928 27.1543 33.4742 27.1627 33.4527C27.1737 33.4276 27.1793 33.4004 27.1793 33.373H27.1768Z" fill="#FB203F"/>
</svg>
