<svg width="75" height="20" viewBox="0 0 75 20" fill="none" xmlns="http://www.w3.org/2000/svg">
<path d="M57.8946 15.2868L54.8272 6.56299H49.3257L54.6616 19.7469H60.9419L66.3181 6.56299H60.9217L57.8946 15.2868Z" fill="#FF6E01"/>
<path d="M12.6223 8.88841L12.5826 8.87394C12.8815 8.75902 13.1691 8.61698 13.4421 8.44958C14.257 7.90022 14.8751 7.10492 15.2064 6.17962C15.5376 5.25431 15.5647 4.24739 15.2836 3.30564C15.0025 2.3639 14.4279 1.53656 13.6436 0.944254C12.8593 0.351946 11.9064 0.0256337 10.9236 0.0128844H11.212L0 0.0065918V19.7472H9.19852C9.37481 19.7472 9.54544 19.7472 9.71543 19.7397H11.919L12.2049 19.7352C15.2024 19.632 17.1706 17.1696 17.1706 14.1469C17.1693 11.5189 15.0671 9.48969 12.6223 8.88841ZM5.3636 3.64507H8.00164C8.30411 3.65111 8.60448 3.69684 8.89505 3.78107C9.18384 3.90061 9.44216 4.08336 9.65103 4.31587C9.85989 4.54838 10.014 4.82474 10.102 5.12464C10.1386 5.276 10.1576 5.43106 10.1587 5.58677C10.1637 5.93037 10.105 6.27194 9.98552 6.59414C9.84915 6.88347 9.64844 7.13781 9.39873 7.3377C9.30755 7.39857 9.21128 7.45145 9.111 7.49574C8.78161 7.65737 8.42379 7.75297 8.05769 7.77716C7.71707 7.79479 7.554 7.80423 6.70529 7.80423H5.3636V3.64507ZM10.4111 15.5931C9.90904 15.9187 9.3241 16.0935 8.72568 16.0968H5.3636V11.1934H8.20563C8.41277 11.1934 8.5834 11.1991 8.68035 11.1997C9.10088 11.1951 9.51936 11.2589 9.91943 11.3886C9.99813 11.4163 10.0781 11.4515 10.1568 11.4811C10.5276 11.6693 10.8428 11.9511 11.0711 12.2987C11.2995 12.6462 11.433 13.0474 11.4584 13.4625C11.4839 13.8775 11.4004 14.292 11.2162 14.6649C11.0321 15.0377 10.7537 15.356 10.4086 15.588L10.4111 15.5931Z" fill="#FF6E01"/>
<path d="M28.489 6.59637L23.8532 12.5228V0H18.6414V19.7463H23.8507L26.0952 16.8973L28.1811 19.7463H34.1195L29.1098 13.0215L34.134 6.59511L28.489 6.59637Z" fill="#FF6E01"/>
<path d="M47.6024 7.11021C46.5415 6.33643 43.9564 5.94922 41.6338 5.94922C40.6908 5.9598 39.7499 6.0423 38.8195 6.19602C37.6946 6.36646 36.5912 6.65733 35.5285 7.06362L37.0194 10.0813C38.0003 9.48833 39.0974 9.11361 40.2361 8.98266C40.9239 8.87658 41.623 8.86577 42.3138 8.95054C42.7436 8.99306 43.1553 9.14478 43.51 9.39127C43.7283 9.55727 43.9012 9.77569 44.0126 10.0263C44.1239 10.2769 44.1703 10.5516 44.1472 10.8249V10.925C42.1755 10.8997 40.2084 11.1215 38.2918 11.5854C36.529 12.103 34.6836 13.6745 34.6836 15.7515C34.716 16.8901 35.1924 17.9709 36.0112 18.7628C36.8299 19.5547 37.926 19.9949 39.065 19.9894C39.128 19.9894 39.7066 20.0001 39.7066 20.0001C41.2722 19.9147 42.7904 19.4324 44.1182 18.5986L44.9896 19.7671H49.1941V10.5818C49.2432 9.9159 49.123 9.24834 48.8447 8.64134C48.5664 8.03433 48.1391 7.50762 47.6024 7.11021ZM44.1207 16.1513C43.4693 16.8202 42.5962 17.2283 41.6653 17.2991C41.5822 17.2991 41.5035 17.2934 41.4298 17.2865C41.3953 17.2828 41.3611 17.2774 41.3272 17.2701C41.3039 17.2701 41.2793 17.2645 41.2592 17.2601C40.8563 17.184 40.4925 16.9699 40.2304 16.6546C39.9683 16.3394 39.8243 15.9426 39.8232 15.5326C39.8221 15.1226 39.9639 14.725 40.2243 14.4083C40.4846 14.0915 40.8473 13.8755 41.2497 13.7972L41.2951 13.784C42.0134 13.6235 44.1232 13.4258 44.1232 13.4258L44.1207 16.1513Z" fill="#FF6E01"/>
<path d="M72.4258 6.78457C72.5598 6.73011 72.6793 6.64543 72.7752 6.53714C72.8698 6.42187 72.918 6.27553 72.9106 6.12663C72.9137 6.02176 72.8896 5.91787 72.8407 5.82506C72.7891 5.73639 72.713 5.66447 72.6216 5.61791C72.5374 5.56895 72.4443 5.53727 72.3477 5.52473C72.2269 5.50847 72.1051 5.5009 71.9832 5.50207H71.1647V7.74975H71.6961V6.92497H71.9101L72.5643 7.74975H73.2436L72.4258 6.78457ZM72.2904 6.33188C72.2729 6.37476 72.2436 6.41184 72.2061 6.43892C72.1597 6.47404 72.1054 6.49737 72.048 6.50691C71.9743 6.51841 71.8997 6.52368 71.8251 6.52265H71.6992V5.89305H71.8648C71.9294 5.89172 71.9941 5.89573 72.0581 5.90502C72.1055 5.91068 72.1513 5.92566 72.1928 5.94908C72.2352 5.96895 72.2698 6.00241 72.291 6.04416C72.3102 6.0834 72.3205 6.12639 72.3213 6.17007C72.3208 6.22502 72.3103 6.27942 72.2904 6.33063V6.33188Z" fill="#FF6E01"/>
<path d="M73.6169 5.08336C73.1936 4.66205 72.6206 4.42554 72.0234 4.42554C71.4261 4.42554 70.8532 4.66205 70.4299 5.08336C70.1131 5.39882 69.897 5.8012 69.8091 6.23955C69.7212 6.6779 69.7654 7.13247 69.936 7.5457C70.1067 7.95892 70.3961 8.3122 70.7677 8.56078C71.1393 8.80936 71.5763 8.94206 72.0234 8.94206C72.4705 8.94206 72.9075 8.80936 73.2791 8.56078C73.6507 8.3122 73.9402 7.95892 74.1108 7.5457C74.2815 7.13247 74.3256 6.6779 74.2377 6.23955C74.1498 5.8012 73.9337 5.39882 73.6169 5.08336ZM73.2675 7.92602C73.0204 8.16995 72.7067 8.33547 72.3659 8.40182C72.0251 8.46816 71.6722 8.43238 71.3517 8.29896C71.0311 8.16554 70.7571 7.94043 70.564 7.65185C70.3708 7.36328 70.2673 7.0241 70.2662 6.67688C70.2636 6.44441 70.3085 6.21387 70.398 5.99932C70.4875 5.78476 70.6198 5.59071 70.7869 5.42901C70.9487 5.26421 71.1418 5.1333 71.3548 5.04395C71.5678 4.95459 71.7965 4.90858 72.0275 4.90858C72.2585 4.90858 72.4872 4.95459 72.7002 5.04395C72.9132 5.1333 73.1063 5.26421 73.2681 5.42901C73.5989 5.76034 73.7846 6.20937 73.7846 6.67751C73.7846 7.14566 73.5989 7.59468 73.2681 7.92602H73.2675Z" fill="#FF6E01"/>
</svg>
