<svg width="389" height="201" fill="none" xmlns="http://www.w3.org/2000/svg"><path d="M0 0h388.053v200.149H0V0Z" fill="#fff"/><path d="M103.232 119.804h-7.87v-19.621H90v-6.388h5.362V89.25c0-5.387 2.37-9.25 10.22-9.25 1.66 0 4.267.335 4.267.335v5.931h-2.738c-2.789 0-3.878.849-3.878 3.194v4.335h6.511l-.579 6.388h-5.932l-.001 19.621Zm18.06-26.52c-.115 0-.233.005-.35.008-7.298 0-10.637 5.49-10.637 13.282 0 9.817 4.331 13.746 10.695 13.746 3.64 0 6.032-1.532 7.486-4.392v3.879h7.486V93.798h-7.486v4c-1.187-2.573-3.646-4.483-7.194-4.513Zm1.903 6.147c3.066 0 4.906 2.138 4.906 5.774l.007 3.715c0 2.451-1.52 5.319-4.913 5.319-5.215 0-5.076-5.632-5.076-7.508 0-6.309 2.779-7.3 5.076-7.3Zm15.8 7.373c0-3.161-.151-13.502 13.322-13.502 5.409 0 7.667 1.72 7.667 1.72l-1.815 5.629s-2.255-1.242-5.194-1.242c-3.764 0-6.166 2.182-6.166 6.022l.004 2.753c0 3.689 2.317 6.152 6.169 6.152 2.678 0 5.145-1.254 5.145-1.254l1.811 5.512s-2.065 1.731-7.583 1.731c-12.829 0-13.36-9.278-13.36-13.521Zm64.883-13.512c7.299 0 10.69 5.49 10.69 13.282 0 9.817-4.331 13.746-10.694 13.746-3.641 0-6.332-1.532-7.786-4.392v3.879l-7.391-.003V80.791l7.848-.685v17.34c1.133-3.034 4.855-4.154 7.334-4.154h-.001Zm-2.2 6.139c-3.065 0-5.133 2.138-5.133 5.774l-.007 3.715c-.005 2.451 1.432 5.319 5.14 5.319 5.216 0 5.076-5.632 5.076-7.508 0-6.309-2.778-7.3-5.076-7.3Zm-28.076-6.118c-8.278 0-12.648 4.514-12.648 12.534v1.49c0 10.41 6.137 13.09 13.453 13.09 7.112 0 10.331-1.989 10.331-1.989l-1.469-5.297s-3.786 1.611-7.921 1.611c-4.286 0-6.129-1.092-6.602-5.211h16.62v-4.25c0-8.7-4.905-11.978-11.764-11.978Zm.199 5.305c2.866 0 4.722 1.757 4.62 5.832h-9.66c.167-4.289 2.17-5.832 5.04-5.832Zm56.417-5.34c-8.501 0-12.976 4.79-12.976 13.375 0 11.778 7.714 13.674 12.99 13.674 7.723 0 12.862-4.158 12.862-13.567 0-9.794-5.778-13.482-12.876-13.482Zm-.107 6.174c3.738 0 5.219 2.797 5.219 5.982v2.738c0 3.857-2.073 6.088-5.233 6.088-2.956 0-5.034-2.087-5.034-6.088v-2.738c0-4.268 2.472-5.982 5.048-5.982Zm28.618-6.174c-8.501 0-12.976 4.79-12.976 13.375 0 11.778 7.715 13.674 12.99 13.674 7.724 0 12.862-4.158 12.862-13.567 0-9.794-5.778-13.482-12.876-13.482Zm-.107 6.174c3.738 0 5.219 2.797 5.219 5.982v2.738c0 3.857-2.072 6.088-5.233 6.088-2.956 0-5.033-2.087-5.033-6.088v-2.738c0-4.268 2.472-5.982 5.047-5.982Zm15.949 20.352V80.791l7.871-.685v26.149l7.809-12.46h8.313l-8.146 12.905 8.46 13.104h-8.337l-8.099-12.723v12.723h-7.871Z" fill="#2D88FF"/></svg>