<svg width="389" height="201" fill="none" xmlns="http://www.w3.org/2000/svg"><path d="M0 0h388.053v200.149H0V0Z" fill="#fff"/><path d="m122.763 124.317-14.052-.257c-4.549-.089-9.11.09-13.57-.838-6.786-1.386-7.267-8.183-7.77-13.884-.693-8.015-.425-16.176.883-24.124.738-4.46 3.644-7.12 8.138-7.412 15.17-1.05 30.44-.927 45.576-.435 1.599.044 3.208.29 4.785.57 7.78 1.364 7.97 9.066 8.473 15.55a88.109 88.109 0 0 1-.671 19.64c-.771 5.388-2.247 9.905-8.473 10.341-7.803.57-15.427 1.028-23.252.883 0-.034-.045-.034-.067-.034Zm-8.261-13.638c5.88-3.376 11.648-6.696 17.495-10.049-5.892-3.376-11.649-6.697-17.495-10.05v20.099Z" fill="red"/><path d="M267.935 118.191c-.268 1.095-.503 1.956-.738 2.873h-5.5V78.641h6.417v15.65c.335-.425.503-.604.648-.794 1.096-1.509 2.515-2.493 4.349-2.873 2.917-.57 5.41.716 6.293 3.522.57 1.743.939 3.61.984 5.432.089 4.684.022 9.357-.145 14.041-.067 1.431-.503 2.895-1.051 4.237-1.8 4.426-7.68 5.097-10.598 1.263-.178-.235-.346-.492-.659-.928Zm.313-11.671v7.758c0 1.264.671 2.035 1.934 2.326 1.241.29 2.247-.19 2.75-1.342.212-.481.425-.984.436-1.487.123-4.739.235-9.479.268-14.23 0-.883-.212-1.8-.481-2.66-.503-1.555-1.889-2.013-3.253-1.107-1.028.693-1.654 1.676-1.654 2.984v7.758Zm-17.439-15.292h6.719v29.858h-5.243c-.19-1.129-.38-2.291-.604-3.655-.358.525-.57.861-.794 1.196-1.744 2.515-4.214 3.376-7.132 2.918-2.493-.403-3.99-2.326-4.326-5.478-.1-.939-.145-1.889-.145-2.828-.023-6.987 0-13.996 0-20.983v-1.05h6.797v1.218c0 6.752-.023 13.493.022 20.245 0 .961.1 1.956.268 2.917.19.984.906 1.342 1.867 1.275 1.554-.123 2.627-1.275 2.627-2.817V92.547c-.056-.436-.056-.838-.056-1.32Zm-46.257-.022h6.751v1.263c0 6.718-.022 13.425.023 20.121 0 .962.089 1.957.29 2.896.258 1.106.906 1.464 2.013 1.319 1.531-.213 2.459-1.275 2.47-2.828V91.25h6.719v29.836h-5.221c-.19-1.106-.38-2.247-.626-3.689a48.14 48.14 0 0 0-.715 1.096c-1.744 2.56-4.192 3.499-7.177 3.04-2.392-.357-3.857-2.124-4.304-5.019-.123-.905-.212-1.8-.212-2.705-.023-7.255-.023-14.544-.023-21.799l.012-.805Zm-3.466 15.94c-.022 1.006-.089 2.013-.145 3.019-.257 3.018-.38 7.299-2.817 9.502-1.554 1.386-3.522 1.889-5.556 1.956-.906.022-1.822.022-2.728-.101-4.281-.648-6.271-2.537-6.986-7.244-.816-5.432-.883-10.955.089-16.388 1.006-5.623 4.472-7.612 9.86-7.243 5.03.357 7.277 3.655 7.87 8.35a56.66 56.66 0 0 1 .413 8.149Zm-6.841-1.028c0-1.912.044-3.834-.023-5.746a19.701 19.701 0 0 0-.424-3.32c-.269-1.263-1.074-1.867-2.08-1.845-.983.023-1.676.627-2.034 1.8-.123.436-.257.883-.257 1.32 0 2.995-.023 6.002-.045 8.998-.022 2.795-.38 5.724.503 8.395.268.816.961 1.264 1.867 1.264.883 0 1.464-.436 1.789-1.219.257-.603.48-1.263.48-1.911.078-2.571.224-5.154.224-7.736Zm-21.251-5.623c.592-2.895 1.151-5.724 1.766-8.563.772-3.61 1.632-7.221 2.392-10.843.191-.883.548-1.096 1.387-1.073 1.799.067 3.633.022 5.555.022-.626 2.303-1.24 4.494-1.844 6.651a5275.179 5275.179 0 0 0-5.712 20.368 6.243 6.243 0 0 0-.213 1.654c-.022 3.712 0 7.412 0 11.123v1.208h-6.562c-.022-.336-.067-.671-.067-1.007 0-2.101-.167-4.214.023-6.293.48-4.997-1.107-9.592-2.393-14.242-1.699-6.148-3.42-12.319-5.119-18.467-.09-.29-.123-.604-.213-.962h6.696a2806.387 2806.387 0 0 0 4.304 20.424Zm128.388 7.792h-11.313c.123 2.269.167 4.426.402 6.562.168 1.486.984 2.123 2.269 2.135 1.342.022 2.124-.649 2.437-2.124.101-.481.168-.962.213-1.454.045-.436.067-.905.1-1.531 1.912.101 3.779.212 5.623.291 1.074 3.186-.86 7.277-4.113 8.54-2.56 1.006-5.187 1.006-7.803.235-1.934-.57-3.376-1.8-4.024-3.689-.604-1.766-1.174-3.611-1.297-5.455-.336-4.55-.459-9.144.235-13.705.122-.76.335-1.487.57-2.225.939-3.04 2.984-4.907 6.148-5.22 1.721-.168 3.499-.101 5.198.19 2.75.48 4.214 2.459 4.852 5.052.29 1.219.503 2.47.547 3.712.012 2.85-.044 5.679-.044 8.686Zm-6.428-3.924c0-2.247.022-4.36-.022-6.484 0-.503-.191-1.028-.381-1.509-.38-.939-1.173-1.196-2.124-1.196-.95 0-1.553.48-1.788 1.341-.716 2.583-.481 5.221-.458 7.87 1.71-.022 3.264-.022 4.773-.022Z" fill="#212121"/><path d="M228.005 85.516h-6.651v-5.388h19.853v5.355H234.6v35.559h-6.584l-.011-35.526Z" fill="#212121"/></svg>