<svg width="389" height="201" fill="none" xmlns="http://www.w3.org/2000/svg"><path d="M0 0h388.053v200.149H0V0Z" fill="#fff"/><path d="M110.082 75.055c-2.78.312-6.95 1.606-9.323 2.9-6.376 3.428-10.69 8.773-12.847 15.892-.432 1.39-.935 5.177-.911 6.951 0 1.558.48 5.369.767 6.279.144.432.455 1.462.719 2.253.431 1.343 2.517 5.561 2.876 5.849.072.072.456.551.815 1.102.887 1.319 3.212 3.667 4.962 5.01 1.342 1.03 5.129 3.211 5.608 3.235.12 0 .144-.91.072-2.109-.168-2.66.336-6.28 1.414-9.971.192-.623.336-1.438.336-1.797 0-.36.096-.743.215-.863.12-.144.336-.839.456-1.558a47.01 47.01 0 0 1 .551-2.445c.24-.935.216-1.294-.12-2.301-.479-1.534-.503-4.027-.024-5.225 1.127-2.852 2.373-3.93 4.482-3.93 2.541 0 3.763 1.917 3.284 5.128-.216 1.462-.815 3.763-1.198 4.483-.096.215-.264.814-.336 1.318-.096.527-.288 1.27-.407 1.678-.336.934.311 2.756 1.174 3.451.815.647 2.517.839 4.075.479 1.102-.239 1.558-.527 2.708-1.629 1.366-1.343 2.397-2.901 2.397-3.644 0-.215.12-.503.264-.647.671-.671 1.03-5.896.527-8.101-.551-2.421-2.253-4.794-4.458-6.184-2.205-1.414-6.759-1.822-9.564-.863-1.965.671-3.715 1.798-4.841 3.116-1.007 1.174-2.061 3.092-2.061 3.763 0 .24-.12.551-.264.695-.144.144-.312 1.055-.384 2.037-.119 1.463-.024 2.134.408 3.572.287.982.815 2.133 1.126 2.564.647.863.647 1.199.048 3.5-.168.623-.455 1.198-.623 1.27-1.51.575-4.578-3.044-5.608-6.639-.384-1.366-.408-6.232-.025-7.67.168-.6.456-1.414.648-1.846.191-.407.36-.815.36-.91 0-.096.479-.911 1.078-1.798 3.116-4.698 8.173-7.19 14.573-7.19 1.462 0 2.972.095 3.379.215 3.308 1.03 4.195 1.366 5.489 2.133 2.517 1.51 4.338 3.572 6.16 7.023.12.216.287.791.359 1.27.096.48.264.935.384 1.007.12.072.216 1.63.216 3.475 0 3.332-.24 4.674-1.247 7.407-1.126 2.996-4.026 6.303-6.663 7.598-1.51.719-4.338 1.51-5.465 1.51-1.51 0-4.482-1.247-5.297-2.253-.383-.456-.743-.288-.743.359 0 .24-.096.647-.24.887-.119.216-.335.887-.455 1.486-.695 3.164-1.678 5.729-3.188 8.125-.455.743-.072 1.175 1.175 1.343.623.096 1.462.263 1.845.383.959.312 6.16.264 7.91-.048 1.582-.287 4.146-1.006 5.297-1.486 7.238-2.972 12.727-9.012 15.1-16.706 1.27-4.098 1.342-8.868.192-13.662-.384-1.558-.504-1.917-1.534-4.314-1.486-3.5-4.842-7.598-8.245-10.115-2.925-2.157-5.801-3.403-10.283-4.482-1.246-.288-5.68-.527-7.095-.36Zm63.924 8.653c-.934.144-2.42 1.678-2.804 2.876-.407 1.319 0 2.733 1.151 3.835 2.54 2.469 6.95.144 6.399-3.403-.335-2.253-2.397-3.691-4.746-3.308Zm-26.125 1.414c-.216.24-.216 29.146.024 29.481.12.192 1.15.264 3.164.24l2.996-.024.119-4.865c.096-3.955.192-4.914.48-5.082.192-.12 1.821-.239 3.619-.239 3.931 0 5.585-.288 7.382-1.247 2.349-1.27 3.716-3.092 4.459-5.992.455-1.822.455-3.14-.024-5.01-.432-1.677-.624-2.085-1.654-3.45-1.271-1.703-2.565-2.637-4.674-3.38-1.175-.384-2.157-.456-8.509-.528-3.955-.048-7.286 0-7.382.096Zm13.158 5.968c1.606.504 2.397 1.223 2.757 2.517.455 1.702.12 3.284-.887 4.243-1.103 1.03-2.085 1.27-5.297 1.27-2.109 0-2.756-.072-3.044-.384-.312-.287-.384-.982-.384-3.715 0-4.314-.023-4.29 3.308-4.29 1.438 0 2.828.144 3.547.36Zm42.041-1.414c0 1.654-.12 3.212-.239 3.476-.168.311-.504.455-1.079.455-.432 0-.839.096-.887.24-.024.12-.024.959.048 1.845.12 1.582.144 1.606.863 1.774.407.072.863.216 1.007.312.215.12.287 2.013.287 6.807 0 6.447.024 6.687.551 7.646 1.103 2.037 2.829 2.756 6.328 2.66l2.349-.072.072-2.325.072-2.349h-.599c-.911 0-2.253-.719-2.397-1.294-.072-.288-.144-2.828-.144-5.68 0-3.931.072-5.25.312-5.441.167-.144.838-.288 1.486-.336l1.198-.072v-3.595l-1.318-.072c-.719-.048-1.39-.216-1.486-.36-.096-.167-.192-1.725-.192-3.475v-3.164h-6.232v3.02Zm89.091-2.876c-.096.096-.168 1.606-.168 3.356 0 3.403-.024 3.451-1.342 3.451-.599 0-.599.024-.527 1.846.072 1.821.096 1.87.719 1.941.335.048.743.216.863.36.143.167.287 3.068.359 6.759.072 3.547.192 6.783.288 7.166.287 1.055 1.773 2.397 3.188 2.853 1.582.527 5.608.575 6.016.071.191-.215.263-1.078.215-2.324l-.071-2.014-.839-.144c-.911-.143-1.942-.623-2.205-1.03-.096-.144-.192-2.757-.192-5.801 0-6.255-.144-5.848 1.941-5.848 1.366 0 1.486-.24 1.366-2.42l-.071-1.295-1.558-.12-1.558-.12-.12-3.355-.12-3.356-3.02-.072c-1.654-.024-3.068.024-3.164.096Zm-100.955 6.232c-1.175.311-2.541 1.102-3.452 2.037-1.102 1.15-1.39 1.079-1.51-.383l-.072-.96h-5.992v21.093l3.02.048c2.972.072 3.044.048 3.188-.479.072-.288.144-3.332.144-6.783 0-6.831.024-7.023 1.438-8.365.623-.6.959-.72 2.301-.791l1.558-.096.935.983c1.102 1.15.982.047 1.078 9.97.024 2.637.048 4.962.072 5.202.048.335.432.383 3.116.335l3.044-.024V97.993l-.695-1.366c-1.198-2.373-3.044-3.5-5.872-3.643-1.007-.024-2.038-.024-2.301.048Zm29.96 0c-2.588.695-3.835 1.39-5.44 2.972-2.158 2.181-3.14 4.722-3.14 8.149.024 6.016 3.787 10.474 9.347 11.002 4.746.455 8.413-.935 10.762-4.075.336-.455 1.055-1.917 1.055-2.181 0-.096-1.39-.192-3.068-.192h-3.068l-.719.743c-.839.863-2.013 1.414-3.092 1.414-1.079 0-2.732-.767-3.499-1.582-.576-.647-1.415-2.516-1.415-3.163 0-.216 1.75-.288 7.383-.288 4.05 0 7.478-.096 7.646-.192.359-.239.024-4.05-.504-5.441-1.078-2.9-3.116-5.345-5.177-6.207a26.676 26.676 0 0 1-1.534-.671c-.503-.264-4.77-.48-5.537-.288Zm4.674 5.249c.935.647 1.75 2.181 1.63 3.044-.072.551-.12.551-4.17.623-4.674.072-4.698.048-3.955-1.678.527-1.198 1.582-2.277 2.564-2.588 1.127-.36 2.949-.072 3.931.599Zm30.8-5.25c-2.781.744-4.722 1.966-6.232 3.86-.599.767-1.079 1.486-1.079 1.63 0 .12-.167.55-.383.958-.216.384-.527 1.582-.695 2.661-.839 5.129 1.462 9.923 5.776 12.08l1.654.839h3.475c3.596 0 3.907-.072 6.112-1.246 1.606-.863 4.243-4.219 3.835-4.89-.095-.12-1.462-.216-3.068-.216h-2.948l-.599.695c-2.397 2.709-6.879 1.319-7.838-2.444-.143-.504-.143-.935-.024-1.031.12-.072 3.548-.12 7.646-.096 5.849 0 7.431-.048 7.455-.288.215-2.996-1.223-7.43-3.02-9.347-1.007-1.079-2.757-2.277-3.62-2.493-.383-.096-.815-.264-.982-.383-.336-.264-4.722-.48-5.465-.288Zm3.739 4.675c1.078.383 2.325 1.725 2.517 2.756.287 1.558.311 1.558-4.147 1.486-4.003-.072-4.027-.072-4.099-.623-.095-.671.743-2.325 1.462-2.948 1.031-.863 2.829-1.15 4.267-.671Zm17.113-4.674c-4.913 1.174-6.687 2.924-6.711 6.567 0 3.931 1.966 5.585 7.79 6.616 4.003.695 5.153 1.318 5.105 2.828-.024 1.078-.767 1.773-2.253 2.085-1.869.408-3.331-.048-4.506-1.366l-.935-1.055h-2.9c-2.349 0-2.9.072-2.9.336 0 .695.959 2.516 1.75 3.427.743.791 1.318 1.175 3.571 2.253.216.12 1.39.312 2.565.456 2.181.263 5.968.024 6.926-.456.216-.096.839-.407 1.367-.647 1.366-.647 2.66-2.109 3.14-3.499.527-1.582.383-3.787-.36-5.321-.887-1.798-3.236-3.092-6.735-3.715-4.506-.791-4.578-.815-5.297-1.51-.863-.887-.863-1.199 0-2.157.695-.767.743-.791 2.66-.791 1.918 0 1.966.023 2.661.79.383.432.695.935.695 1.127 0 .288.503.36 2.996.36 3.308 0 3.212.071 2.637-1.63-1.055-3.02-3.764-4.554-8.27-4.722-1.39-.048-2.732-.048-2.996.024Zm-31.878.503c-1.054.36-2.516 1.558-2.972 2.421-.455.863-.863.503-.983-.935l-.119-1.294h-5.992l-.072 10.067c-.024 5.536 0 10.306.072 10.618.119.527.191.527 3.067.479 1.654-.024 2.997-.168 3.092-.311.096-.12.192-2.661.192-5.633 0-4.698.048-5.537.456-6.591.838-2.182 2.636-3.476 4.889-3.476.623 0 .887-.12.959-.431.168-.695.192-3.931.048-4.65-.144-.575-.264-.671-.911-.647-.431.024-1.198.191-1.726.383Zm-73.823.36c-.072.168-.096 4.89-.072 10.498l.072 10.187 2.853.119c1.725.072 2.972.024 3.163-.119.264-.192.336-2.23.336-10.379.024-5.56-.048-10.234-.12-10.354-.24-.36-6.112-.312-6.232.048Z" fill="#F20629"/></svg>