<svg width="389" height="201" fill="none" xmlns="http://www.w3.org/2000/svg"><path d="M0 0h388.053v200.149H0V0Z" fill="#fff"/><path d="M125.366 71h1.615c5.606.122 11.122 2.377 15.083 6.368-1.463 1.493-2.956 2.925-4.388 4.419-2.224-2.012-4.906-3.566-7.831-4.114-4.327-.914-8.989-.091-12.615 2.377-3.961 2.59-6.642 6.977-7.221 11.67-.64 4.631.67 9.506 3.687 13.102 2.895 3.504 7.313 5.698 11.883 5.85 4.266.244 8.715-1.066 11.823-4.052 2.437-2.103 3.565-5.302 3.93-8.41-5.058 0-10.116.03-15.174 0v-6.277h21.299c1.097 6.734-.488 14.321-5.607 19.135-3.412 3.413-8.135 5.424-12.949 5.82-4.662.457-9.477-.426-13.621-2.681-4.966-2.651-8.927-7.13-10.877-12.402-1.829-4.844-1.859-10.329-.153-15.204 1.554-4.449 4.54-8.38 8.379-11.122 3.687-2.712 8.167-4.205 12.737-4.479Z" fill="#3580FF"/><path d="M247.553 72.584h6.52v43.511c-2.163 0-4.357.031-6.52-.03.03-14.473 0-28.977 0-43.481Z" fill="#33A853"/><path d="M161.96 87.667c4.022-.762 8.379.091 11.701 2.498 3.016 2.133 5.119 5.485 5.759 9.141.822 4.236-.214 8.867-2.956 12.219-2.956 3.748-7.8 5.759-12.523 5.454-4.327-.244-8.532-2.407-11.091-5.942-2.895-3.9-3.596-9.262-2.011-13.833 1.584-4.906 6.063-8.654 11.121-9.537Zm.914 5.79a8.194 8.194 0 0 0-4.266 2.711c-2.955 3.534-2.772 9.293.488 12.584 1.859 1.889 4.662 2.773 7.252 2.255 2.407-.427 4.509-2.042 5.667-4.174 2.011-3.626 1.432-8.623-1.645-11.457-1.981-1.829-4.875-2.59-7.496-1.92Z" fill="#F84233"/><path d="M194.258 87.667c4.601-.884 9.629.396 13.072 3.626 5.606 5.028 6.216 14.443 1.432 20.232-2.895 3.657-7.587 5.668-12.219 5.454-4.418-.121-8.775-2.315-11.395-5.941-2.956-3.992-3.596-9.476-1.92-14.138 1.676-4.754 6.064-8.38 11.03-9.233Zm.914 5.79a8.335 8.335 0 0 0-4.266 2.68c-2.925 3.474-2.803 9.142.336 12.463 1.858 1.981 4.753 2.956 7.434 2.407 2.377-.457 4.51-2.041 5.668-4.174 1.98-3.657 1.401-8.654-1.706-11.487-1.981-1.829-4.876-2.56-7.466-1.89Z" fill="#FFC00A"/><path d="M221.653 89.434c3.504-2.194 8.166-2.803 11.944-.914 1.188.518 2.163 1.402 3.108 2.285.03-.822 0-1.675.03-2.529 2.042.03 4.083 0 6.155.03v26.876c-.03 4.052-1.066 8.349-3.991 11.304-3.2 3.26-8.105 4.266-12.524 3.596-4.722-.701-8.836-4.144-10.664-8.502 1.828-.883 3.748-1.584 5.637-2.407 1.066 2.499 3.23 4.632 5.942 5.119 2.711.488 5.85-.183 7.617-2.437 1.889-2.316 1.889-5.485 1.798-8.319-1.402 1.371-3.017 2.59-4.967 3.047-4.235 1.189-8.897-.274-12.157-3.138-3.291-2.864-5.241-7.283-5.058-11.67.091-4.967 2.894-9.75 7.13-12.34Zm6.307 3.9c-1.859.305-3.596 1.341-4.784 2.773-2.864 3.413-2.864 8.867.031 12.219 1.645 1.98 4.296 3.077 6.855 2.803 2.408-.244 4.632-1.767 5.82-3.87 2.011-3.565 1.676-8.41-1.036-11.517-1.676-1.92-4.357-2.865-6.886-2.407Z" fill="#3580FF"/><path d="M261.902 90.988c3.657-3.412 9.294-4.57 13.986-2.772 4.449 1.675 7.282 5.91 8.714 10.268-6.612 2.742-13.193 5.454-19.805 8.196.914 1.737 2.316 3.322 4.205 3.962 2.651.944 5.82.609 8.044-1.158.883-.671 1.584-1.554 2.255-2.407 1.676 1.127 3.351 2.224 5.027 3.351-2.376 3.565-6.368 6.064-10.664 6.46-4.754.579-9.812-1.249-12.889-4.967-5.058-5.85-4.571-15.661 1.127-20.933Zm3.26 5.637c-1.036 1.493-1.462 3.322-1.432 5.119a2391.43 2391.43 0 0 0 13.255-5.515c-.731-1.706-2.499-2.742-4.296-3.016-2.895-.518-5.912 1.036-7.527 3.412Z" fill="#F84233"/></svg>