<svg width="389" height="201" fill="none" xmlns="http://www.w3.org/2000/svg"><path d="M0 0h388.053v200.149H0V0Z" fill="#fff"/><path d="M122.518 96.521h-12.566v3.589h12.566v14.363h-19.747l-7.181-7.181V69.591h14.362v12.566h12.566v14.364Zm53.857 17.952H133.29l-7.181-7.181V82.157h14.362v17.953h3.59V82.157h14.362v17.953h3.59V82.157h14.362v32.316Zm3.591-32.316h14.362v32.315h-14.362V82.157Zm0-12.566h14.362v8.976h-14.362v-8.976Zm44.881 26.93H212.28v3.589h12.567v14.363h-19.748l-7.181-7.181V69.591h14.362v12.566h12.567v14.364Zm32.314 0h-14.362v3.589h14.362v14.363h-21.543l-7.181-7.181V89.34l7.181-7.183h21.543v14.364Zm35.904 17.952h-14.361V96.521h-3.591v17.952h-14.362V69.591h14.362v12.566h10.771l7.181 7.183v25.133Z" fill="#fff"/><path d="M287.68 78.567h-8.976V66h-19.71l-9.064 12.567h-16.107l-5.385 5.385v-5.385h-12.567V66h-39.495v12.567h-55.563L111.748 66H92v43.086l25.133 25.133h25.134v-7.181l7.18 7.181h48.472v-7.181l7.181 7.181h23.338v-7.181l7.181 7.181h44.88l16.157-16.157v-30.52l-8.976-8.975ZM122.519 96.519h-12.567v3.59h12.567v14.362h-19.748l-7.18-7.181v-37.7h14.361v12.567h12.567V96.52Zm53.857 17.952H133.29l-7.181-7.181V82.157h14.362v17.952h3.591V82.157h14.362v17.952h3.59V82.157h14.362v32.314Zm17.952 0h-14.362V82.157h14.362v32.314Zm0-35.904h-14.362V69.59h14.362v8.976Zm30.519 17.952h-12.566v3.59h12.566v14.362H205.1l-7.181-7.181v-37.7h14.362v12.567h12.566V96.52Zm32.314 0H242.8v3.59h14.361v14.362h-21.542l-7.181-7.181V89.338l7.181-7.18h21.542v14.36Zm35.905 17.952h-14.362V96.519h-3.59v17.952h-14.362v-44.88h14.362v12.566h10.771l7.181 7.181v25.133Z" fill="#9146FF"/></svg>